<svg version="1.1" xmlns="http://www.w3.org/2000/svg" xmlns:xlink="http://www.w3.org/1999/xlink" width="18.34809" height="18.37248" viewBox="0,0,18.34809,18.37248"><defs><linearGradient x1="231.05485" y1="176.62472" x2="237.27849" y2="177.79832" gradientUnits="userSpaceOnUse" id="color-1"><stop offset="0" stop-color="#8c9aa7"/><stop offset="1" stop-color="#8c9aa7" stop-opacity="0"/></linearGradient></defs><g transform="translate(-230.76302,-170.8207)"><g data-paper-data="{&quot;isPaintingLayer&quot;:true}" fill-rule="nonzero" stroke="none" stroke-width="0" stroke-linecap="butt" stroke-linejoin="miter" stroke-miterlimit="10" stroke-dasharray="" stroke-dashoffset="0" style="mix-blend-mode: normal"><path d="M230.88889,180c0,-5.03193 4.07918,-9.11111 9.11111,-9.11111c5.03193,0 9.11111,4.07918 9.11111,9.11111c0,5.03193 -4.07918,9.11111 -9.11111,9.11111c-5.03193,0 -9.11111,-4.07918 -9.11111,-9.11111zM240.97219,180.54709c0.01822,-0.08494 0.02781,-0.17307 0.02781,-0.26345c0,-0.69036 -0.55964,-1.25 -1.25,-1.25c-0.45878,0 -0.85983,0.24716 -1.07727,0.61558c-0.93276,0.53301 -0.92307,5.38442 1.07727,5.38442c1.92326,0 2.04272,-2.6492 1.22219,-4.48655zM239.66667,178.20031c0.9665,0 1.75,-0.7835 1.75,-1.75c0,-0.9665 -0.7835,-1.75 -1.75,-1.75c-0.9665,0 -1.75,0.7835 -1.75,1.75c0,0.9665 0.7835,1.75 1.75,1.75z" fill="#495057"/><path d="M235.95792,187.91111c-0.0638,-0.01203 -1.33348,-0.37055 -2.19102,-1.12276c-1.2732,-1.11682 -2.30697,-2.83382 -2.55338,-3.40642c-0.22185,-0.51555 -0.46675,-2.33507 -0.44965,-3.89157c0.01687,-1.53648 0.51412,-2.47482 0.8855,-3.28234c0.88773,-1.93028 2.6046,-3.5234 4.24058,-4.39774c1.70222,-0.90974 3.31686,-1.05967 3.8188,-0.96502c1.71861,0.32408 -1.63996,2.76206 -2.43026,6.95306c-0.7903,4.191 0.39804,10.43687 -1.32057,10.11279z" fill="url(#color-1)"/><path d="M246.18182,173.46591c0,0 0.80333,4.65671 -0.36859,8.09136c-1.03774,3.04138 -3.33399,4.545 -5.90414,4.545c-5.47264,0 -7.54546,-1.27272 -7.54546,-1.27272c0,0 2.61827,4.36363 8.09091,4.36363c2.16094,0 4.73897,-0.74833 6.69267,-3.30439c0.43583,-0.5702 2.2033,-4.08764 1.80286,-6.94862c-0.51694,-3.69329 -2.76826,-5.47426 -2.76826,-5.47426z" fill="#2b3034"/></g></g></svg>