<svg version="1.1" xmlns="http://www.w3.org/2000/svg" xmlns:xlink="http://www.w3.org/1999/xlink" width="32.00562" height="46.69999" viewBox="0,0,32.00562,46.69999"><defs><linearGradient x1="341.70328" y1="179.42381" x2="368.7089" y2="179.42381" gradientUnits="userSpaceOnUse" id="color-1"><stop offset="0" stop-color="#6a9dd0"/><stop offset="1" stop-color="#082b55"/></linearGradient></defs><g transform="translate(-341.70328,-158.57381)"><g data-paper-data="{&quot;isPaintingLayer&quot;:true}" fill-rule="evenodd" stroke="none" stroke-width="1" stroke-linecap="butt" stroke-linejoin="miter" stroke-miterlimit="10" stroke-dasharray="" stroke-dashoffset="0" style="mix-blend-mode: normal"><path d="M367.0284,184.12227c-0.0377,0.24169 -0.12962,0.47173 -0.26888,0.67293c-0.13926,0.20112 -0.32222,0.36809 -0.53515,0.4885c-0.4289,0.27696 -0.80411,0.41544 -1.18376,0.55391c-0.80855,0.27922 -1.65957,0.55843 -2.55969,0.8823c-0.9492,0.32378 -1.80022,0.64765 -2.5596,0.88222c-0.94702,0.32387 -1.84714,0.603 -2.70259,0.92687c-0.64357,0.27548 -1.24813,0.63436 -1.79796,1.06769c-0.5114,0.4633 -0.95769,0.99376 -1.32672,1.57687c-0.3797,0.64765 -0.61869,1.48304 -0.61869,2.45683c0,1.94991 0.4735,3.43295 1.42276,4.35991c0.94703,0.97604 2.7026,1.43839 5.3046,1.43839c2.65351,0 4.45373,-0.50926 5.40519,-1.52996c0.94477,-1.02078 1.41823,-2.45691 1.41823,-4.31074v-9.46573zM360.20497,163.57381c4.64573,0 8.05635,0.88224 10.23405,2.6914c2.17995,1.76448 3.26989,4.03375 3.26989,6.72289v22.91606c0,0.92687 -0.18765,1.94765 -0.51821,3.05991c-0.33499,1.11678 -0.99611,2.1353 -2.03922,3.05991c-0.99394,0.93139 -2.36752,1.71986 -4.12083,2.32286c-1.75331,0.60309 -4.02709,0.92696 -6.82342,0.92696c-2.7919,0 -5.07013,-0.32387 -6.82122,-0.92696c-1.75109,-0.603 -3.12694,-1.39148 -4.12086,-2.32286c-0.92461,-0.83322 -1.62505,-1.88536 -2.03698,-3.05991c-0.33503,-1.11009 -0.52488,-2.13078 -0.52488,-3.05765v-3.663c0,-1.94991 0.52041,-3.75908 1.56347,-5.33821c1.04306,-1.62152 2.51049,-2.73378 4.40675,-3.43069c0.94702,-0.32387 2.03698,-0.64765 3.26763,-1.06535c1.23293,-0.41995 2.3676,-0.83756 3.50662,-1.20609c1.1391,-0.37304 2.13304,-0.746 2.98407,-1.07212c0.51352,-0.20546 1.03512,-0.39024 1.5634,-0.55391l0.85329,-0.41769c0.33499,-0.18539 0.66329,-0.46452 0.99611,-0.8353c0.33056,-0.36852 0.61421,-0.78622 0.8532,-1.25083c0.25255,-0.50301 0.3826,-1.05866 0.37973,-1.62152v-1.4853c0.00348,-0.54436 -0.11077,-1.08307 -0.33508,-1.57913c-0.18756,-0.55835 -0.56729,-1.06759 -1.08768,-1.52993c-0.52047,-0.46457 -1.23293,-0.83534 -2.08387,-1.11676c-0.85329,-0.27472 -1.98787,-0.41544 -3.26989,-0.41544c-2.65351,0 -4.40682,0.51371 -5.3538,1.57687c-0.80407,0.92915 -1.27758,2.08834 -1.37139,3.386c0,0.27922 -0.23675,0.46461 -0.52264,0.46461l-5.77814,0.09383c-0.13725,0.00061 -0.2692,-0.05308 -0.36708,-0.14925c-0.09788,-0.09626 -0.15379,-0.22726 -0.15557,-0.36444v-1.34013c0,-1.30217 0.23899,-2.50827 0.7594,-3.66747c0.52265,-1.16144 1.32895,-2.13302 2.41668,-2.9706c1.08996,-0.83311 2.51272,-1.52774 4.2169,-1.99231c1.65951,-0.55838 3.69647,-0.78843 6.06399,-0.78843z" fill="#cfdceb"/><path d="M362.02839,179.12227c-0.0377,0.24169 -0.12962,0.47173 -0.26888,0.67293c-0.13926,0.20112 -0.32222,0.36809 -0.53515,0.4885c-0.4289,0.27696 -0.80411,0.41544 -1.18376,0.55391c-0.80855,0.27922 -1.65957,0.55843 -2.55969,0.8823c-0.9492,0.32378 -1.80022,0.64765 -2.5596,0.88222c-0.94702,0.32387 -1.84714,0.603 -2.70259,0.92687c-0.64357,0.27548 -1.24813,0.63436 -1.79796,1.06769c-0.5114,0.4633 -0.95769,0.99376 -1.32672,1.57687c-0.3797,0.64765 -0.61869,1.48304 -0.61869,2.45683c0,1.94991 0.4735,3.43295 1.42276,4.35991c0.94703,0.97604 2.7026,1.43839 5.3046,1.43839c2.65351,0 4.45373,-0.50926 5.40519,-1.52996c0.94477,-1.02078 1.41823,-2.45691 1.41823,-4.31074v-9.46573zM355.20496,158.57381c4.64573,0 8.05635,0.88224 10.23405,2.6914c2.17995,1.76448 3.26989,4.03375 3.26989,6.72289v22.91606c0,0.92687 -0.18765,1.94765 -0.51821,3.05991c-0.33499,1.11678 -0.99611,2.1353 -2.03922,3.05991c-0.99394,0.93139 -2.36752,1.71986 -4.12083,2.32286c-1.75331,0.60309 -4.02709,0.92696 -6.82342,0.92696c-2.7919,0 -5.07013,-0.32387 -6.82122,-0.92696c-1.75109,-0.603 -3.12694,-1.39148 -4.12086,-2.32286c-0.92461,-0.83322 -1.62505,-1.88536 -2.03698,-3.05991c-0.33503,-1.11009 -0.52488,-2.13078 -0.52488,-3.05765v-3.663c0,-1.94991 0.52041,-3.75908 1.56347,-5.33821c1.04306,-1.62152 2.51049,-2.73378 4.40675,-3.43069c0.94702,-0.32387 2.03698,-0.64765 3.26763,-1.06535c1.23293,-0.41995 2.3676,-0.83756 3.50662,-1.20609c1.1391,-0.37304 2.13304,-0.746 2.98407,-1.07212c0.51352,-0.20546 1.03512,-0.39024 1.5634,-0.55391l0.85329,-0.41769c0.33499,-0.18539 0.66329,-0.46452 0.99611,-0.8353c0.33056,-0.36852 0.61421,-0.78622 0.8532,-1.25083c0.25255,-0.50301 0.3826,-1.05866 0.37973,-1.62152v-1.4853c0.00348,-0.54436 -0.11077,-1.08307 -0.33508,-1.57913c-0.18756,-0.55835 -0.56729,-1.06759 -1.08768,-1.52993c-0.52047,-0.46457 -1.23293,-0.83534 -2.08387,-1.11676c-0.85329,-0.27472 -1.98787,-0.41544 -3.26989,-0.41544c-2.65351,0 -4.40682,0.51371 -5.3538,1.57687c-0.80407,0.92915 -1.27758,2.08834 -1.37139,3.386c0,0.27922 -0.23675,0.46461 -0.52264,0.46461l-5.77814,0.09383c-0.13725,0.00061 -0.2692,-0.05308 -0.36708,-0.14925c-0.09788,-0.09626 -0.15379,-0.22726 -0.15557,-0.36444v-1.34013c0,-1.30217 0.23899,-2.50827 0.7594,-3.66747c0.52265,-1.16144 1.32895,-2.13302 2.41668,-2.9706c1.08996,-0.83311 2.51272,-1.52774 4.2169,-1.99231c1.65951,-0.55838 3.69647,-0.78843 6.06399,-0.78843z" fill="url(#color-1)"/></g></g></svg>