<svg version="1.1" xmlns="http://www.w3.org/2000/svg" xmlns:xlink="http://www.w3.org/1999/xlink" width="284.3843" height="260.17671" viewBox="0,0,284.3843,260.17671"><defs><radialGradient cx="198.31728" cy="163.24114" r="55.20449" gradientUnits="userSpaceOnUse" id="color-1"><stop offset="0" stop-color="#99f8ff"/><stop offset="1" stop-color="#99f8ff" stop-opacity="0"/></radialGradient><radialGradient cx="109.32497" cy="291.77317" r="14.17492" gradientUnits="userSpaceOnUse" id="color-2"><stop offset="0" stop-color="#63f5ff"/><stop offset="1" stop-color="#63f5ff" stop-opacity="0"/></radialGradient><radialGradient cx="375.54766" cy="247.47655" r="7.97339" gradientUnits="userSpaceOnUse" id="color-3"><stop offset="0" stop-color="#63f5ff"/><stop offset="1" stop-color="#63f5ff" stop-opacity="0"/></radialGradient><radialGradient cx="241.3289" cy="275.38342" r="11.64368" gradientUnits="userSpaceOnUse" id="color-4"><stop offset="0" stop-color="#63f5ff"/><stop offset="1" stop-color="#63f5ff" stop-opacity="0"/></radialGradient><radialGradient cx="220.95245" cy="235.51645" r="6.64449" gradientUnits="userSpaceOnUse" id="color-5"><stop offset="0" stop-color="#63f5ff"/><stop offset="1" stop-color="#63f5ff" stop-opacity="0"/></radialGradient><radialGradient cx="124.82878" cy="220.45561" r="15.50382" gradientUnits="userSpaceOnUse" id="color-6"><stop offset="0" stop-color="#63f5ff"/><stop offset="1" stop-color="#63f5ff" stop-opacity="0"/></radialGradient><radialGradient cx="121.72802" cy="131.86237" r="14.61789" gradientUnits="userSpaceOnUse" id="color-7"><stop offset="0" stop-color="#63f5ff"/><stop offset="1" stop-color="#63f5ff" stop-opacity="0"/></radialGradient><radialGradient cx="351.18452" cy="195.6495" r="14.61789" gradientUnits="userSpaceOnUse" id="color-8"><stop offset="0" stop-color="#63f5ff"/><stop offset="1" stop-color="#63f5ff" stop-opacity="0"/></radialGradient></defs><g transform="translate(-97.80785,-108.03665)"><g data-paper-data="{&quot;isPaintingLayer&quot;:true}" fill-rule="nonzero" stroke-linejoin="miter" stroke-miterlimit="10" stroke-dasharray="" stroke-dashoffset="0" style="mix-blend-mode: normal"><path d="M357.68135,299.15593c0,4.56669 -5.98879,8.85933 -19.93349,8.85933c-1.67702,0 -9.38458,-1.11022 -9.38458,-1.11022c0,0 -4.80982,5.6835 -7.42123,5.37249c-4.54124,-0.54084 -5.79635,-6.45443 -6.8639,-7.88996c-1.39212,-1.87202 2.72134,-1.67651 5.45505,-4.06887c1.75216,-1.53336 2.41553,-5.86977 2.41553,-6.77368c0,-4.56668 6.28411,1.47656 20.22879,1.47656c13.94468,0 15.50382,-0.43232 15.50382,4.13436z" fill="#000000" stroke="none" stroke-width="0" stroke-linecap="butt"/><path d="M245.46325,210.54824c0,2.95812 2.09838,14.74901 2.09838,14.74901c0,0 14.49339,-24.67663 18.08031,-24.40591c6.31937,0.47694 3.8541,19.25451 2.26492,19.25451c-1.06964,0 -1.77818,8.57349 -8.43932,15.18645c-4.74489,4.71057 -15.12861,8.2809 -18.95942,7.70766c-2.73355,-0.40904 -6.45093,-3.13614 -7.44421,-8.96481c-0.79629,-4.67275 -0.42028,-10.76041 0.00464,-15.63277c0.28047,-3.21618 0.58228,-5.90284 0.58228,-7.30351c0,-15.08635 2.51208,-27.31624 5.61091,-27.31624c3.09881,0 6.20152,11.63929 6.20152,26.72564z" fill="#ffffff" stroke="none" stroke-width="0" stroke-linecap="butt"/><path d="M274.4037,273.16859c0,0 0.01759,-7.73888 -2.42401,-23.43151c-1.53806,-9.88536 -6.54104,-22.00825 -7.21187,-27.5635c-0.44028,-3.646 -3.18909,-15.60379 1.47559,-22.00295c6.2806,-8.61596 21.43992,-11.47579 30.59544,-11.30433c8.48618,0.15892 18.2114,8.95022 21.7599,13.79736c8.59291,11.73774 2.75938,67.84712 2.75938,67.84712c0,0 -13.92503,6.67771 -21.29539,7.0949c-8.19375,0.46379 -25.65903,-4.4371 -25.65903,-4.4371z" fill="#0a3871" stroke="none" stroke-width="0" stroke-linecap="butt"/><path d="M316.28512,139.3928c0,1.24103 -0.7822,4.4852 -1.69663,10.83161c-0.46507,3.2278 0.185,9.22836 -1.47301,12.13134c-3.89172,6.814 -14.27594,10.04603 -16.77309,11.79675c-9.81027,6.87784 -14.10387,-10.17506 -19.92425,-10.17506c-9.17413,0 -16.61123,-7.4371 -16.61123,-16.61123c0,-3.48406 0.07861,-10.56368 6.22044,-15.53272c3.67773,-2.97546 9.76627,-2.31867 14.32006,-4.50146c7.86626,-3.77055 13.78938,-9.42308 13.78938,-9.42308c0,0 -1.89756,7.59901 -0.4344,7.36192c2.03378,-0.32954 11.49915,-9.15476 11.49915,-9.15476c0,0 1.92355,7.08392 -1.36579,14.97015c-1.30037,3.11761 8.76927,-5.15661 8.76927,-5.15661c0,0 0.86412,4.68437 0.53183,6.84545c-0.31846,2.07113 -2.48592,5.8626 -2.48592,5.8626c0,0 5.63416,0.19978 5.63416,0.75513z" fill="#0a3871" stroke="none" stroke-width="0" stroke-linecap="butt"/><path d="M299.59327,169.86893c-2.90952,2.43183 -7.01695,2.3109 -9.17423,-0.27012c-2.15727,-2.58102 -1.54747,-6.64475 1.36204,-9.07657c2.90952,-2.43183 7.01697,-2.3109 9.17424,0.27012c2.15727,2.58102 1.54746,6.64475 -1.36206,9.07657z" fill="#ffffff" stroke="none" stroke-width="0" stroke-linecap="butt"/><path d="M295.02273,171.72933c0,6.51465 0.57682,16.67598 -2.49341,21.22896c-0.25139,0.37281 0.57724,-1.03828 0.27534,-0.69135c-3.01386,3.46347 -6.33943,2.89195 -9.7484,1.85308c-1.24067,-0.37808 0.73034,-5.11502 -0.76882,-5.11502c-3.19808,0 -7.92688,1.81694 -11.65868,1.35797c-3.95355,-0.48625 -6.86941,-3.33718 -8.65104,-6.63169c-2.35788,-4.36008 -3.05675,-10.41322 -3.05675,-16.21013c0,-6.46944 -0.9598,-12.11842 1.92361,-16.60946c3.49526,-5.44402 8.95386,-7.97517 15.01985,-7.97517c5.84048,0 10.88975,3.36411 15.19403,8.2258c3.8541,4.35321 3.96427,13.80603 3.96427,20.56699z" fill="#ffffff" stroke="none" stroke-width="0" stroke-linecap="butt"/><path d="M321.65343,314.21679c0,2.85265 -42.35709,30.7353 -50.08165,32.5924c-4.39919,1.05763 -9.3547,0.44272 -13.14641,0.14209c-5.43288,-0.43078 -7.78979,-7.16667 -7.78979,-7.16667c0,0 -4.87241,1.74843 -7.68247,1.74843c-11.98753,0 -15.20851,-7.50105 -15.20851,-16.38975c0,-2.16294 0.89798,-7.90407 4.21724,-12.67251c10.32139,-14.82767 33.8143,-35.6108 42.88484,-35.6108c2.65527,0 46.70114,-9.68213 46.70114,-9.68213c0,0 -1.58756,14.1059 -2.40256,19.82814c-0.67531,4.74143 -4.51009,12.11933 -4.51009,12.11933c0,0 0.62724,1.90662 3.85367,5.76773c2.8745,3.43995 3.16465,7.32153 3.16465,9.32376z" fill="#ffffff" stroke="none" stroke-width="0" stroke-linecap="butt"/><path d="M198.31728,218.44563c-27.18261,0 -49.21847,-24.71589 -49.21847,-55.20449c0,-30.4886 22.03586,-55.20449 49.21847,-55.20449c27.18261,0 49.21847,24.71589 49.21847,55.20449c0,30.4886 -22.03586,55.20449 -49.21847,55.20449z" fill="url(#color-1)" stroke="none" stroke-width="0" stroke-linecap="butt"/><path d="M188.6792,155.05482v-5.69528h20.12332v5.69528z" fill="#6cf5ff" stroke="none" stroke-width="0" stroke-linecap="butt"/><path d="M105.33828,348.91581c0,0 12.51925,-7.04406 20.78222,-7.62053c4.70928,-0.32856 12.37752,2.75515 20.40169,3.24067c6.39301,0.38683 12.94926,-2.93318 18.17453,-3.1241c6.16881,-0.22539 10.48257,2.63135 10.48257,2.63135" fill="none" stroke="#000000" stroke-width="0.5" stroke-linecap="round"/><path d="M159.67546,367.96336c0,0 12.51925,-3.77888 20.78222,-4.08814c4.70928,-0.17626 20.40169,1.7385 20.40169,1.7385c0,0 -4.939,-6.0494 -8.35239,-14.06228c-3.53475,-8.29774 -5.57239,-18.64758 -7.03628,-23.39582c-1.58747,-5.14906 -0.44645,-13.90404 -0.44645,-13.90404l2.72123,5.46381l-0.61389,-10.14642c0,0 7.46276,11.19463 14.37566,23.70144c8.03757,14.54156 9.89318,32.17774 11.62041,32.14388c1.48404,-0.02909 4.28228,-0.88035 6.22557,-0.552c1.84966,0.31254 2.84148,1.80486 4.40469,1.80347c3.62121,-0.00324 5.75854,-1.3164 5.75854,-1.3164" fill="none" stroke="#000000" stroke-width="0.5" stroke-linecap="round"/><path d="M201.90491,353.05017l-14.17492,-39.42399" fill="none" stroke="#000000" stroke-width="0.5" stroke-linecap="round"/><path d="M198.36118,343.45256l0.29531,-14.02726" fill="none" stroke="#000000" stroke-width="0.5" stroke-linecap="round"/><path d="M262.88659,358.80872c0,0 19.34518,-6.07238 34.84022,-6.45977c8.54032,-0.21351 24.97777,3.62778 38.43968,4.77685c11.74158,1.00222 21.21954,-0.67957 21.21954,-0.67957" fill="none" stroke="#000000" stroke-width="0.5" stroke-linecap="round"/><path d="M335.53304,330.81202c0,0 1.03929,0.63853 2.80014,0.64011c0.76014,0.00068 1.2424,-0.72498 2.14182,-0.87695c0.94493,-0.15967 2.30561,0.25427 3.02723,0.26841c0.83989,0.01646 1.74219,-8.55926 5.65053,-15.63021c3.36146,-6.08154 6.99029,-11.52501 6.99029,-11.52501l-0.2985,4.93377l1.32322,-2.65682c0,0 0.55483,4.25718 -0.2171,6.76095c-0.71184,2.30886 -1.70265,7.34156 -3.42145,11.3764c-1.65979,3.89631 -4.06141,6.8379 -4.06141,6.8379c0,0 7.63056,-0.93107 9.92049,-0.84536c4.01793,0.15039 10.10553,1.98789 10.10553,1.98789" data-paper-data="{&quot;index&quot;:null}" fill="none" stroke="#000000" stroke-width="0.5" stroke-linecap="round"/><path d="M355.85205,305.66121l-6.89266,19.17023" data-paper-data="{&quot;index&quot;:null}" fill="none" stroke="#000000" stroke-width="0.5" stroke-linecap="round"/><path d="M350.53896,313.34365l0.14359,6.82087" data-paper-data="{&quot;index&quot;:null}" fill="none" stroke="#000000" stroke-width="0.5" stroke-linecap="round"/><path d="M108.73435,309.86956c0,0 13.07508,-3.94665 21.70491,-4.26964c4.91837,-0.18408 21.30747,1.81568 21.30747,1.81568c0,0 -5.15827,-6.31799 -8.72321,-14.6866c-3.69167,-8.66614 -5.81977,-19.47549 -7.34867,-24.43453c-1.65794,-5.37766 -0.46627,-14.52135 -0.46627,-14.52135l2.84204,5.7064l-0.64114,-10.59689c0,0 7.7941,11.69164 15.01391,24.75373c8.39442,15.18718 10.33242,33.60634 12.13632,33.57098c1.54992,-0.03037 4.4724,-0.91945 6.50197,-0.5765c1.93178,0.32641 2.96763,1.88501 4.60025,1.88353c1.39204,-0.00125 6.67774,-1.3596 12.2424,-0.83647c9.55386,0.89816 20.79272,3.89128 20.79272,3.89128" fill="none" stroke="#000000" stroke-width="0.5" stroke-linecap="round"/><path d="M138.03443,253.11993l14.80425,41.17431" fill="none" stroke="#000000" stroke-width="0.5" stroke-linecap="round"/><path d="M149.13762,284.27053l0.30842,-14.65003" fill="none" stroke="#000000" stroke-width="0.5" stroke-linecap="round"/><path d="M111.98276,321.45191c0,0 8.4697,-4.76554 14.05985,-5.15556c3.186,-0.22229 8.3738,1.86394 13.80241,2.19241c4.32507,0.2617 8.7606,-1.9844 12.29567,-2.11355c4.17341,-0.15248 7.0918,1.7802 7.0918,1.7802" fill="none" stroke="#000000" stroke-width="0.5" stroke-linecap="round"/><path d="M168.23946,272.72562c0,0 8.4697,-4.76554 14.05985,-5.15555c3.186,-0.22229 8.3738,1.86394 13.80241,2.19241c4.32507,0.2617 8.7606,-1.98439 12.29567,-2.11355c4.17341,-0.15248 7.0918,1.78018 7.0918,1.78018" fill="none" stroke="#000000" stroke-width="0.5" stroke-linecap="round"/><path d="M188.61592,293.988c0,0 8.4697,-4.76554 14.05985,-5.15555c3.186,-0.22229 8.3738,1.86394 13.80241,2.19241c4.32507,0.2617 8.7606,-1.98439 12.29567,-2.11355c4.17341,-0.15248 7.0918,1.78018 7.0918,1.78018" fill="none" stroke="#000000" stroke-width="0.5" stroke-linecap="round"/><path d="M120.84209,220.89858c0,-2.44644 1.98323,-4.42965 4.42965,-4.42965c2.44644,0 4.42965,1.98323 4.42965,4.42965c0,2.44644 -1.98323,4.42965 -4.42965,4.42965c-2.44644,0 -4.42965,-1.98323 -4.42965,-4.42965z" fill="#0a3871" stroke="none" stroke-width="0" stroke-linecap="butt"/><path d="M119.07022,132.74831c0,-2.69108 2.18154,-4.87262 4.87262,-4.87262c2.69108,0 4.87262,2.18154 4.87262,4.87262c0,2.69108 -2.18154,4.87262 -4.87262,4.87262c-2.69108,0 -4.87262,-2.18154 -4.87262,-4.87262z" fill="#0a3871" stroke="none" stroke-width="0" stroke-linecap="butt"/><path d="M104.89531,290.44428c0,-2.69108 2.18154,-4.87262 4.87262,-4.87262c2.69108,0 4.87262,2.18154 4.87262,4.87262c0,2.69108 -2.18154,4.87262 -4.87262,4.87262c-2.69108,0 -4.87262,-2.18154 -4.87262,-4.87262z" fill="#0a3871" stroke="none" stroke-width="0" stroke-linecap="butt"/><path d="M236.89923,275.82639c0,-1.95714 1.58658,-3.54373 3.54373,-3.54373c1.95714,0 3.54373,1.58658 3.54373,3.54373c0,1.95714 -1.58658,3.54373 -3.54373,3.54373c-1.95714,0 -3.54373,-1.58658 -3.54373,-3.54373z" fill="#0a3871" stroke="none" stroke-width="0" stroke-linecap="butt"/><path d="M218.29466,236.84536c0,-1.46785 1.18993,-2.6578 2.6578,-2.6578c1.46785,0 2.6578,1.18993 2.6578,2.6578c0,1.46785 -1.18993,2.6578 -2.6578,2.6578c-1.46785,0 -2.6578,-1.18993 -2.6578,-2.6578z" fill="#0a3871" stroke="none" stroke-width="0" stroke-linecap="butt"/><path d="M345.86892,196.97841c0,-3.425 2.77652,-6.20152 6.20152,-6.20152c3.425,0 6.20152,2.77652 6.20152,6.20152c0,3.425 -2.77652,6.20152 -6.20152,6.20152c-3.425,0 -6.20152,-2.77652 -6.20152,-6.20152z" fill="#0a3871" stroke="none" stroke-width="0" stroke-linecap="butt"/><path d="M372.4469,247.91951c0,-2.20179 1.7849,-3.9867 3.9867,-3.9867c2.20179,0 3.9867,1.7849 3.9867,3.9867c0,2.20179 -1.7849,3.9867 -3.9867,3.9867c-2.20179,0 -3.9867,-1.7849 -3.9867,-3.9867z" fill="#0a3871" stroke="none" stroke-width="0" stroke-linecap="butt"/><path d="M109.32497,305.94809c-6.36074,0 -11.51712,-6.34632 -11.51712,-14.17492c0,-7.82859 5.1564,-14.17492 11.51712,-14.17492c6.36074,0 11.51712,6.34632 11.51712,14.17492c0,7.82859 -5.1564,14.17492 -11.51712,14.17492z" fill="url(#color-2)" stroke="none" stroke-width="0" stroke-linecap="butt"/><path d="M375.54766,255.44994c-3.66966,0 -6.64449,-3.56982 -6.64449,-7.97339c0,-4.40358 2.97484,-7.97339 6.64449,-7.97339c3.66966,0 6.64449,3.56982 6.64449,7.97339c0,4.40358 -2.97484,7.97339 -6.64449,7.97339z" fill="url(#color-3)" stroke="none" stroke-width="0" stroke-linecap="butt"/><path d="M241.3289,285.57163c-3.9143,0 -7.08746,-4.56143 -7.08746,-10.18822c0,-5.6268 3.17316,-10.18822 7.08746,-10.18822c3.9143,0 7.08746,4.56143 7.08746,10.18822c0,5.6268 -3.17316,10.18822 -7.08746,10.18822z" fill="url(#color-4)" stroke="none" stroke-width="0" stroke-linecap="butt"/><path d="M220.95245,242.16096c-1.46785,0 -2.6578,-2.97484 -2.6578,-6.64449c0,-3.66966 1.18993,-6.64449 2.6578,-6.64449c1.46785,0 2.6578,2.97484 2.6578,6.64449c0,3.66966 -1.18993,6.64449 -2.6578,6.64449z" fill="url(#color-5)" stroke="none" stroke-width="0" stroke-linecap="butt"/><path d="M124.82878,235.95942c-6.60537,0 -11.96009,-6.94129 -11.96009,-15.50382c0,-8.56252 5.35471,-15.50382 11.96009,-15.50382c6.60537,0 11.96009,6.94129 11.96009,15.50382c0,8.56252 -5.35471,15.50382 -11.96009,15.50382z" fill="url(#color-6)" stroke="none" stroke-width="0" stroke-linecap="butt"/><path d="M121.72802,146.48026c-7.82859,0 -14.17492,-6.54464 -14.17492,-14.61789c0,-8.07324 6.34632,-14.61789 14.17492,-14.61789c7.82859,0 14.17492,6.54464 14.17492,14.61789c0,8.07324 -6.34632,14.61789 -14.17492,14.61789z" fill="url(#color-7)" stroke="none" stroke-width="0" stroke-linecap="butt"/><path d="M199.31039,196.75692l9.68197,-42.96772l13.28898,6.20152z" fill="#20c0cc" stroke="none" stroke-width="0" stroke-linecap="butt"/><path d="M175.32693,161.31962l13.73195,-6.64449l10.56791,41.63882z" data-paper-data="{&quot;index&quot;:null}" fill="#20c0cc" stroke="none" stroke-width="0" stroke-linecap="butt"/><path d="M216.58607,146.51188l-7.5484,3.13149l-19.97878,-0.22055l-8.16323,-2.91091z" fill="#a4f9ff" stroke="none" stroke-width="0" stroke-linecap="butt"/><path d="M175.39021,161.50947l5.94841,-15.31397l8.35308,3.29061l-0.75938,5.69528z" fill="#00eeff" stroke="none" stroke-width="0" stroke-linecap="butt"/><path d="M209.05565,155.05482l-0.75938,-5.56873l8.47964,-3.16405l5.82184,13.79524z" data-paper-data="{&quot;index&quot;:null}" fill="#00eeff" stroke="none" stroke-width="0" stroke-linecap="butt"/><path d="M199.5635,196.69364l-10.50462,-42.52475l19.99676,0.12656z" fill="#a4f9ff" stroke="none" stroke-width="0" stroke-linecap="butt"/><path d="M209.43534,122.67082l-2.43632,11.29564" fill="none" stroke="#000000" stroke-width="0.5" stroke-linecap="round"/><path d="M212.09312,133.08053l7.53043,-6.423" fill="none" stroke="#000000" stroke-width="0.5" stroke-linecap="round"/><path d="M227.154,136.62425l-9.3023,1.55038" fill="none" stroke="#000000" stroke-width="0.5" stroke-linecap="round"/><path d="M319.48552,203.6856c1.29773,1.73848 4.36346,17.76585 4.6875,32.70697c0.22408,10.33214 -0.09247,19.99073 -6.37064,24.67725c-7.39646,5.52131 -19.52743,13.54186 -29.44327,14.22789c-2.282,0.15788 -5.91962,8.53916 -11.65272,12.15025c-5.412,3.40885 -12.94853,2.08456 -14.53234,1.40871c-1.35946,-0.58012 -0.12614,-2.88003 2.83804,-6.0048c2.66995,-2.81461 6.96709,-6.35419 8.17244,-8.94242c0.92361,-1.98328 -0.61971,-2.80857 -1.92184,-3.7932c-1.47421,-1.11475 -2.80571,-2.26726 -2.95977,-2.47363c-0.571,-0.76492 1.75127,-2.78499 5.56545,-2.52729c4.16739,0.28157 9.88693,2.88175 9.88693,2.88175c0,0 10.72435,-7.24637 15.18696,-10.75328c2.09825,-1.6489 4.05949,-4.36931 6.0153,-6.0577c1.32267,-1.14182 3.4189,-2.53731 3.4189,-2.53731c0,0 -1.06839,-14.70745 -1.15334,-27.30753c-0.0359,-5.32295 -0.6241,-10.26982 0.29552,-13.57284c3.59323,-12.90578 10.78783,-5.66234 11.9669,-4.08282z" fill="#ffffff" stroke="none" stroke-width="0" stroke-linecap="butt"/><path d="M237.48986,195.93037c-4.89286,0 -8.85933,-5.55302 -8.85933,-12.40306c0,-2.22393 -1.05847,-4.31113 -0.32635,-6.116c0.81829,-2.01729 2.16299,-3.3044 4.2913,-4.61012c1.83269,-1.12436 4.39911,-2.41522 5.92797,-2.41522c4.89286,0 7.82573,6.29132 7.82573,13.14133c0,6.85002 -3.96644,12.40306 -8.85933,12.40306z" fill="#ffffff" stroke="none" stroke-width="0" stroke-linecap="butt"/><path d="M227.57502,194.33133c0,0 -2.55389,-0.60622 -3.53614,-1.50049c-0.98305,-0.89501 -2.35972,-3.86737 -2.35972,-3.86737l21.44353,-20.52215l6.0435,5.36787z" fill="#ffffff" stroke="none" stroke-width="0" stroke-linecap="butt"/><path d="M255.20851,175.55393c-8.97026,0 -16.24209,-7.40404 -16.24209,-16.53741c0,-9.13336 7.27182,-16.53741 16.24209,-16.53741c8.97026,0 16.24209,7.40404 16.24209,16.53741c0,9.13336 -7.27182,16.53741 -16.24209,16.53741z" fill="none" stroke="#000000" stroke-width="3" stroke-linecap="butt"/><path d="M246.93981,159.01653l13.28898,-6.79215" fill="none" stroke="#000000" stroke-width="0.5" stroke-linecap="round"/><path d="M249.3023,165.51336l10.9265,-7.67809" fill="none" stroke="#000000" stroke-width="0.5" stroke-linecap="round"/><path d="M261.70534,162.48642c-0.73393,0 -1.3289,-1.52048 -1.3289,-3.39607c0,-1.8756 0.59496,-3.39607 1.3289,-3.39607c0.73393,0 1.3289,1.52048 1.3289,3.39607c0,1.8756 -0.59496,3.39607 -1.3289,3.39607z" fill="#000000" stroke="none" stroke-width="0" stroke-linecap="butt"/><path d="M268.86663,183.60115c-1.34554,0 -2.43632,-2.18154 -2.43632,-4.87262c0,-2.69108 1.09079,-4.87262 2.43632,-4.87262c1.34554,0 2.43632,2.18154 2.43632,4.87262c0,2.69108 -1.09079,4.87262 -2.43632,4.87262z" fill="none" stroke="#000000" stroke-width="0.5" stroke-linecap="butt"/><path d="M257.86631,151.41228c0,0 0.37061,-0.86161 1.26309,-1.68293c0.60627,-0.55794 1.69193,-1.1768 2.14072,-1.18596c0.61554,-0.01257 1.67428,0.47029 2.45358,1.12747c0.83909,0.7076 1.37772,1.59377 1.37772,1.59377" fill="none" stroke="#000000" stroke-width="0.5" stroke-linecap="round"/><path d="M271.59826,150.52635c0,0 0.51432,-0.8616 1.75286,-1.68293c0.84137,-0.55794 2.348,-1.1768 2.97081,-1.18596c0.8542,-0.01257 2.32349,0.47028 3.40496,1.12747c1.16445,0.7076 3.68379,3.36563 3.68379,3.36563" fill="none" stroke="#000000" stroke-width="0.5" stroke-linecap="round"/><path d="M281.04819,159.61729c0,0 -0.53864,0.88617 -1.37772,1.59377c-0.77931,0.65718 -1.83805,1.14004 -2.45358,1.12747c-0.44878,-0.00916 -1.53445,-0.62801 -2.14072,-1.18596c-0.89248,-0.82132 -1.26309,-1.68293 -1.26309,-1.68293" data-paper-data="{&quot;index&quot;:null}" fill="none" stroke="#000000" stroke-width="0.5" stroke-linecap="round"/><path d="M227.78678,194.23624l-2.15156,-0.37969l-2.15156,-1.39218l-1.13904,-1.26562l-0.25313,-1.51874l0.12656,-1.01249l6.04334,-5.53181l2.21484,-1.99335c0,0 3.14642,0.04133 4.65923,-0.79071c1.43634,-0.78998 4.2001,-4.08192 4.2001,-4.08192c0,0 2.97193,4.2998 1.5811,6.72383c-1.14502,1.9956 -9.33301,6.78663 -9.33301,6.78663z" fill="none" stroke="#000000" stroke-width="0.5" stroke-linecap="round"/><path d="M321.35813,266.96706l-1.18124,16.53741l-2.3625,10.9265l-3.77577,7.41969l-27.46391,24.36314" fill="none" stroke="#000000" stroke-width="0.5" stroke-linecap="round"/><path d="M301.98995,271.37457c0,0 -8.81437,2.54723 -15.86272,6.80811c-6.82664,4.12684 -11.86493,9.95994 -13.61805,10.65489c-4.43806,1.75924 -12.06945,-2.04776 -12.06945,-2.04776c0,0 0.31486,-2.35406 2.06353,-4.13188c1.4,-1.42335 5.2342,-3.05338 7.95152,-5.24576c2.02611,-1.63471 3.27392,-4.13282 3.27392,-4.13282l-5.64465,-5.42633l0.53156,-1.24029l2.30342,-1.06312l3.36654,-0.35438" fill="none" stroke="#000000" stroke-width="0.5" stroke-linecap="round"/><path d="M265.47055,228.31825c0,0 -3.09803,5.19231 -9.01555,9.39419c-6.02297,4.27675 -14.88716,7.54339 -17.19855,5.10084c-1.73453,-1.83295 -6.19825,-5.51434 -6.94756,-11.87051c-0.61053,-5.17899 0.58723,-11.53152 0.94899,-17.23455c0.6317,-9.95879 0.98356,-18.39096 0.98356,-18.39096l-3.32225,-3.10077" fill="none" stroke="#000000" stroke-width="0.5" stroke-linecap="round"/><path d="M265.0276,201.29733c0,0 -4.9455,4.19852 -7.46884,7.45653c-3.1632,4.08413 -10.02832,15.13476 -10.02832,15.13476l-3.32225,-31.4506c0,0 1.62228,-4.04994 2.06245,-6.47085c0.31748,-1.74615 0.16415,-5.55355 0.35638,-7.9623c0.14859,-1.86213 0.68194,-2.62104 0.68194,-2.62104" fill="none" stroke="#000000" stroke-width="0.5" stroke-linecap="round"/><path d="M295.07546,173.64884v15.65148" fill="none" stroke="#000000" stroke-width="0.5" stroke-linecap="round"/><path d="M281.92357,281.25272l2.43632,1.88261c0,0 -23.77853,20.73851 -30.28554,31.06837c-1.94722,3.09123 -4.49331,7.91067 -5.25149,12.50965c-1.08212,6.56391 0.09972,12.67869 0.09972,12.67869l-8.41635,2.43631l-5.75856,-0.88593l-4.87262,-5.31559l-2.6578,-6.20152v-7.97339l4.42965,-9.3023l10.18822,-12.40306l19.93349,-15.94678" fill="none" stroke="#000000" stroke-width="0.5" stroke-linecap="round"/><path d="M321.56905,310.70997l1.10741,1.99335l-1.99335,3.9867l-8.85933,6.64449l-14.3964,9.3023l-11.73861,7.30894l-9.08081,4.42965l-7.08746,3.32225l-7.08746,0.22148l-7.97339,-1.77187l-5.75856,-7.30894" fill="none" stroke="#000000" stroke-width="0.5" stroke-linecap="round"/><path d="M282.3771,188.7097c0,0 -8.81971,3.6722 -12.31869,1.90055c-1.00699,-0.50987 -2.56568,-0.80525 -4.08521,-1.98798c-1.11018,-0.86412 -2.19946,-2.47726 -3.03739,-3.62722c-2.75537,-3.78137 -3.88825,-8.09779 -3.88825,-8.09779" fill="none" stroke="#000000" stroke-width="0.5" stroke-linecap="round"/><path d="M317.81439,201.70338c0,0 1.42029,0.71334 2.16879,2.75776c1.5519,4.23879 3.13845,12.2513 3.6777,17.83419c0.86835,8.99005 -0.82621,31.38274 -0.82621,31.38274" fill="none" stroke="#000000" stroke-width="0.5" stroke-linecap="round"/><path d="M351.18452,210.26738c-7.82859,0 -14.17492,-6.54464 -14.17492,-14.61789c0,-8.07324 6.34632,-14.61789 14.17492,-14.61789c7.82859,0 14.17492,6.54464 14.17492,14.61789c0,8.07324 -6.34632,14.61789 -14.17492,14.61789z" fill="url(#color-8)" stroke="none" stroke-width="0" stroke-linecap="butt"/></g></g></svg>